<svg xmlns="http://www.w3.org/2000/svg" width="35.93" height="35.93" viewBox="0 0 1024 1024" version="1.1">
    <path d="M 352 250.682 C 336.140 253.395, 317.496 265.837, 308.085 279.989 C 303.531 286.838, 302.752 288.642, 299.839 299.101 L 297.500 307.500 297.500 519 L 297.500 730.500 299.742 738.910 C 303.531 753.121, 308.197 761.252, 318.471 771.551 C 328.696 781.802, 335.638 785.966, 347.596 789.025 C 355.120 790.949, 359.218 791, 506.213 791 C 674.738 791, 663.907 791.444, 679.737 783.887 C 697.550 775.384, 711.051 757.189, 715.425 735.792 C 716.810 729.013, 716.997 712.867, 716.978 601.792 C 716.957 480.011, 716.888 475.351, 715.062 471.328 C 712.667 466.054, 708.830 463.500, 703.300 463.500 L 699.012 463.500 666.506 495.994 C 648.628 513.866, 634 528.789, 634 529.156 C 634 529.524, 635.828 530.133, 638.062 530.511 C 640.297 530.888, 645.179 532.725, 648.911 534.592 C 660.857 540.568, 669.531 551.980, 671.992 564.960 C 672.608 568.207, 673 597.156, 673 639.426 C 673 713.252, 672.937 714.323, 668.001 723.998 C 664.522 730.818, 654.747 740.322, 647.350 744.076 L 640.604 747.500 607.500 747.500 L 574.396 747.500 566.790 743.741 C 557.623 739.210, 550.623 732.042, 545.800 722.246 L 542.500 715.544 542.266 644.022 L 542.032 572.500 546.633 567.500 C 551.948 561.725, 591.364 521.707, 651.309 461.227 L 693.208 418.955 697.079 422.452 C 704.703 429.340, 708.909 428.552, 718.599 418.422 C 726.237 410.437, 728.391 409.600, 733.931 412.464 C 737.739 414.433, 741.682 419.276, 742.496 422.984 C 743.023 425.383, 742.483 427.108, 739.902 431.258 C 733.475 441.592, 735.316 451.761, 744.821 458.442 C 748.413 460.966, 750.066 461.461, 754.812 461.432 C 758.325 461.411, 761.811 460.703, 763.928 459.581 C 767.537 457.668, 801.175 424.205, 806.014 417.713 C 813.060 408.259, 809.457 394.838, 798.541 389.880 C 791.325 386.602, 783.464 387.908, 776.834 393.486 C 771.137 398.280, 762.548 395.905, 757.274 388.078 C 756.023 386.223, 755 383.792, 755 382.678 C 755 381.525, 757.984 377.574, 761.919 373.516 C 769.862 365.324, 771.282 361.504, 768.535 355.714 C 766.387 351.189, 717.872 303.146, 711.986 299.717 C 699.441 292.407, 679.374 292.216, 651 299.136 C 617.046 307.416, 586.314 322.345, 557.163 344.717 C 535.823 361.095, 521 376.606, 521 382.559 C 521 385.687, 524.049 390.598, 527.115 392.409 C 531.449 394.969, 535.335 394.061, 545.349 388.146 C 571.204 372.875, 605.404 361.939, 627 362.037 C 635.712 362.076, 636.810 362.580, 644.791 370.208 L 650.763 375.916 596.632 429.918 L 542.500 483.921 542 460.710 L 541.500 437.500 454 437 L 366.500 436.500 360.804 433.830 C 350.409 428.958, 342.610 418.914, 340.124 407.201 C 338.635 400.181, 338.605 334.521, 340.088 326.434 C 341.437 319.078, 347.157 307.947, 351.589 304.056 C 353.421 302.447, 356.912 299.964, 359.347 298.537 C 368.746 293.028, 368.824 293.025, 477.875 293.031 L 578.250 293.038 588.375 287.145 C 617.491 270.199, 651.653 261.046, 681.514 262.189 C 687.831 262.431, 693 262.520, 693 262.388 C 693 261.616, 681.377 255.784, 675 253.356 L 667.500 250.500 511 250.377 C 424.925 250.309, 353.375 250.447, 352 250.682 M 379.333 330.551 C 375.586 332.504, 371.504 335.057, 370.260 336.225 C 363.546 342.533, 373.223 351.598, 380.079 345.422 C 380.947 344.640, 381.956 344, 382.321 344 C 382.686 344, 382.875 355.648, 382.742 369.884 C 382.515 394.121, 382.621 395.902, 384.405 397.884 C 386.819 400.565, 391.959 400.663, 395.139 398.088 L 397.500 396.177 397.500 364.506 L 397.500 332.836 394.234 329.918 C 390.004 326.138, 387.604 326.240, 379.333 330.551 M 431.748 329.427 C 426.598 331.265, 421.436 335.384, 418.251 340.197 C 414.784 345.436, 413.966 355.005, 416.433 361.465 C 420.131 371.148, 432.350 378.007, 443.310 376.553 C 446.080 376.186, 449.207 375.425, 450.259 374.862 C 453.312 373.227, 453.414 374.591, 450.521 378.384 C 445.269 385.269, 435.795 387.648, 425.711 384.614 C 421.532 383.356, 420.958 383.389, 419.522 384.976 C 416.899 387.874, 415.987 392.537, 417.595 394.833 C 419.794 397.972, 428.468 400.476, 437 400.435 C 451.024 400.367, 462.201 392.840, 467.123 380.147 C 471.842 367.981, 470.559 349.335, 464.360 339.968 C 457.832 330.104, 443.149 325.358, 431.748 329.427 M 437.049 343.306 C 434.935 344.038, 432.849 345.788, 431.664 347.825 C 429.010 352.384, 430.633 358.242, 435.204 360.605 C 439.215 362.680, 447.198 362.033, 450.125 359.396 C 455.541 354.517, 453.867 347.207, 446.576 343.895 C 441.839 341.744, 441.608 341.730, 437.049 343.306 M 482.775 383.559 C 477.469 386.438, 476.364 392.986, 480.394 397.672 C 482.307 399.895, 483.633 400.455, 486.996 400.455 C 490.480 400.455, 491.704 399.896, 494.102 397.211 C 497.967 392.887, 497.828 389.628, 493.600 385.400 C 489.890 381.690, 487.095 381.215, 482.775 383.559 M 439.727 480.772 C 435.477 485.047, 432 488.919, 432 489.378 C 432 489.836, 435.153 493.588, 439.007 497.715 L 446.015 505.219 438.869 513.145 L 431.723 521.072 439.583 529.286 C 443.905 533.804, 447.569 537.689, 447.724 537.920 C 447.880 538.151, 451.647 534.797, 456.097 530.468 L 464.187 522.595 471.717 530.297 C 475.858 534.534, 479.539 538, 479.897 538 C 480.835 538, 496 522.609, 496 521.657 C 496 521.218, 493.188 517.721, 489.750 513.887 C 486.313 510.053, 483.350 506.485, 483.167 505.958 C 482.983 505.431, 486.027 501.533, 489.931 497.296 L 497.030 489.593 492.099 484.546 C 489.387 481.771, 485.825 478.038, 484.183 476.250 C 482.541 474.462, 480.826 473, 480.371 473 C 479.916 473, 476.047 476.477, 471.772 480.727 L 464 488.453 456.228 480.727 C 451.953 476.477, 448.230 473, 447.954 473 C 447.679 473, 443.976 476.497, 439.727 480.772 M 347.923 484.923 C 346.315 486.531, 345 488.553, 345 489.417 C 345 490.281, 348.082 494.485, 351.849 498.760 L 358.699 506.533 351.849 513.948 C 348.082 518.025, 345 522.215, 345 523.258 C 345 525.667, 350.270 531, 352.651 531 C 353.644 531, 357.890 527.586, 362.087 523.414 L 369.718 515.827 375.470 522.338 C 381.908 529.626, 385.654 531.791, 388.858 530.076 C 391.273 528.783, 394 525.122, 394 523.171 C 394 522.410, 390.773 518.459, 386.828 514.391 L 379.657 506.994 382.078 504.247 C 383.410 502.737, 386.637 499.165, 389.250 496.310 C 391.863 493.455, 394 490.471, 394 489.679 C 394 487.776, 388.044 482, 386.082 482 C 385.236 482, 381.121 485.403, 376.937 489.563 L 369.329 497.126 361.995 489.563 C 357.911 485.351, 353.817 482, 352.754 482 C 351.705 482, 349.531 483.315, 347.923 484.923 M 462 549.864 C 458.941 550.420, 458.437 550.933, 458 553.940 C 457.587 556.781, 456.957 557.520, 454.376 558.186 C 452.657 558.629, 450.669 559.694, 449.957 560.551 C 448.811 561.933, 448.400 561.792, 446.351 559.305 L 444.040 556.500 439.520 561.192 C 437.034 563.772, 435 566.360, 435 566.942 C 435 567.524, 435.895 568.895, 436.989 569.989 C 438.893 571.893, 438.907 572.127, 437.304 575.489 C 435.887 578.461, 435.121 579, 432.315 579 L 429 579 429 585 L 429 591 432.497 591 C 435.494 591, 436.191 591.465, 437.367 594.250 C 438.656 597.299, 438.581 597.672, 436.159 600.275 L 433.577 603.051 438.159 607.633 C 442.564 612.037, 442.834 612.156, 445.121 610.681 C 447.266 609.298, 448.016 609.308, 452.750 610.778 C 457.692 612.312, 458 612.601, 458 615.704 L 458 619 464 619 C 469.919 619, 470 618.962, 470 616.171 C 470 613.759, 470.729 613, 474.950 611.023 C 479.762 608.769, 479.976 608.754, 482.624 610.489 L 485.348 612.274 489.789 607.574 L 494.230 602.873 492.142 600.652 C 490.299 598.689, 490.186 598.002, 491.180 594.766 C 492.172 591.534, 492.727 591.067, 495.902 590.801 L 499.500 590.500 499.500 584.500 L 499.500 578.500 495.933 578.201 C 492.877 577.944, 492.186 577.402, 491.108 574.422 C 489.952 571.225, 490.032 570.794, 492.099 569.121 L 494.349 567.299 492.272 564.399 C 491.130 562.805, 489.024 560.406, 487.591 559.069 L 484.987 556.639 482.148 559.358 C 479.638 561.763, 479.161 561.899, 478.029 560.535 C 477.325 559.686, 475.343 558.630, 473.624 558.187 C 470.922 557.491, 470.432 556.850, 470 553.441 C 469.452 549.124, 468.477 548.688, 462 549.864 M 365 555.121 C 358.479 556.117, 355.618 557.447, 350.975 561.642 C 332.886 577.984, 342.820 607.057, 367.091 608.813 C 375.092 609.392, 382.211 606.842, 387.578 601.474 C 393.455 595.597, 395.247 591.661, 395.779 583.460 C 396.358 574.545, 393.741 567.860, 387.379 561.995 C 380.804 555.935, 373.788 553.780, 365 555.121 M 363.190 572.026 C 359.432 574.317, 356.563 580.124, 357.448 583.650 C 359.340 591.185, 368.410 595.041, 374.810 591.031 C 381.794 586.654, 382.287 577.943, 375.857 572.533 C 372.178 569.438, 367.727 569.260, 363.190 572.026 M 458.020 571.752 C 444.447 578.571, 449.001 598.972, 464.102 598.993 C 479.368 599.015, 484.470 578.656, 470.929 571.752 C 469.043 570.790, 466.150 570.003, 464.500 570.003 C 462.850 570.003, 459.934 570.790, 458.020 571.752 M 578.898 581.282 C 576.207 583.090, 575.435 584.341, 575.189 587.298 C 574.935 590.339, 575.430 591.584, 577.862 594.016 L 580.846 597 607.469 597 L 634.091 597 636.505 594.586 C 639.672 591.419, 640.496 587.807, 638.840 584.353 C 636.438 579.344, 634.591 579.031, 607.398 579.015 C 582.908 579, 582.213 579.056, 578.898 581.282 M 579.980 613.669 C 574.320 616.012, 573.327 622.481, 577.923 627.077 L 580.846 630 607.288 630 C 632.116 630, 633.884 629.879, 636.244 628.023 C 641.305 624.042, 640.278 616.309, 634.313 613.478 C 631.222 612.012, 627.674 611.840, 606.784 612.147 C 591.563 612.371, 581.772 612.927, 579.980 613.669 M 349.942 628.472 C 348.535 629.237, 346.845 631.045, 346.187 632.489 C 344.616 635.937, 345.644 637.879, 353.080 645.500 L 358.934 651.500 351.967 659.401 C 348.135 663.747, 345 668.155, 345 669.197 C 345 672.057, 349.481 676, 352.731 676 C 354.897 676, 357.169 674.372, 362.502 668.998 L 369.450 661.997 376.573 669.073 C 382.895 675.353, 384.069 676.113, 387 675.825 C 389.191 675.609, 390.983 674.584, 392.325 672.779 C 394.930 669.275, 394.184 667.614, 386.026 658.744 L 379.813 651.989 386.972 644.323 C 393.049 637.816, 394.039 636.268, 393.524 634.079 C 392.858 631.252, 388.363 627.013, 386.022 627.005 C 385.209 627.002, 381.117 630.408, 376.927 634.572 L 369.310 642.145 361.859 634.572 C 357.761 630.408, 353.979 627.018, 353.454 627.040 C 352.929 627.062, 351.349 627.706, 349.942 628.472 M 431.923 647.923 C 427.939 651.907, 427.993 655.975, 432.077 659.411 L 435.153 662 464.654 662 L 494.154 662 497.077 659.077 C 498.685 657.469, 500 655.401, 500 654.481 C 500 651.837, 496.895 647.273, 494.288 646.085 C 492.753 645.386, 481.760 645, 463.376 645 L 434.846 645 431.923 647.923 M 577.635 679.073 C 573.960 681.963, 573.961 687.688, 577.636 691.364 L 580.273 694 606.686 694 C 636.572 694, 638.414 693.641, 639.547 687.603 C 640.216 684.036, 638.874 680.422, 636.087 678.282 C 634.932 677.395, 627.122 677.055, 607.385 677.032 C 581.442 677.001, 580.156 677.090, 577.635 679.073 M 457.077 693.589 C 454.158 696.045, 454 696.553, 454 703.482 C 454 712.096, 454.123 712, 443.093 712 C 436.351 712, 435.077 712.291, 433.248 714.250 C 430.222 717.492, 429.610 721.131, 431.379 725.364 C 433.305 729.975, 435.976 731, 446.065 731 L 454 731 454 738.326 C 454 744.728, 454.297 745.930, 456.357 747.865 C 459.576 750.890, 464.893 751.624, 468.831 749.588 C 472.311 747.788, 472.867 746.265, 473.243 737.500 L 473.500 731.500 482.674 731 C 490.624 730.567, 492.193 730.176, 494.424 728.076 C 496.380 726.235, 497 724.663, 497 721.548 C 497 713.658, 492.382 710.627, 481.179 711.165 L 474.184 711.500 473.830 703.653 C 473.508 696.517, 473.223 695.589, 470.682 693.403 C 466.809 690.071, 461.166 690.148, 457.077 693.589 M 347.073 701.635 C 344.489 704.919, 344.435 708.080, 346.911 711.139 C 348.784 713.454, 349.208 713.507, 368.665 713.837 C 387.747 714.161, 388.615 714.091, 391.255 712.014 C 395.010 709.061, 395.061 703.980, 391.365 701.073 C 388.901 699.134, 387.447 699, 368.938 699 L 349.145 699 347.073 701.635 M 347.174 729.314 C 343.583 733.137, 344.429 738.136, 349.072 740.537 C 351.254 741.666, 356.110 742, 370.315 742 C 387.431 742, 388.916 741.854, 391.365 739.927 C 394.651 737.343, 394.927 732.372, 391.961 729.189 C 389.993 727.076, 389.217 727, 369.635 727 C 349.723 727, 349.309 727.043, 347.174 729.314" stroke="none" fill="#AAA" fill-rule="evenodd" />

</svg>